<svg xmlns="http://www.w3.org/2000/svg" xmlns:xlink="http://www.w3.org/1999/xlink" width="1040" height="336" viewBox="0 0 1040 336"><defs><linearGradient id="a" x1="97.27" y1="85.29" x2="125.23" y2="85.29" gradientUnits="userSpaceOnUse"><stop offset="0" stop-color="#7a1414"/><stop offset="0.13" stop-color="#7a1414" stop-opacity="0.74"/><stop offset="0.29" stop-color="#7a1414" stop-opacity="0.47"/><stop offset="0.45" stop-color="#7a1414" stop-opacity="0.27"/><stop offset="0.62" stop-color="#7a1414" stop-opacity="0.12"/><stop offset="0.8" stop-color="#7a1414" stop-opacity="0.03"/><stop offset="1" stop-color="#7a1414" stop-opacity="0"/></linearGradient></defs><path d="M393.59,235.42V62h63.13q29,0,44.62,10.64t15.6,30a35.55,35.55,0,0,1-9.49,24.55,49.93,49.93,0,0,1-24.25,14.63v.48q18.49,2.31,29.57,13.67a38.24,38.24,0,0,1,11.06,27.69q0,23.82-17.05,37.79t-46.56,14ZM432.65,90.79V131.9h17.17q12.09,0,19.05-5.86t6.95-16.14q0-19.11-28.54-19.11Zm0,70.14v45.71h21.16q13.54,0,21.23-6.29t7.68-17.17q0-10.41-7.56-16.33t-21.1-5.92Z" style="fill:#222"/><path d="M629.4,146.05a33.13,33.13,0,0,0-16.08-3.75q-12.47,0-19.47,9.13t-7,24.85v59.14H548.62V111.59h38.21v23h.49q9.07-25.14,32.65-25.15a24.75,24.75,0,0,1,9.43,1.45Z" style="fill:#222"/><path d="M750.21,235.42H714.05V217.64h-.48q-12.47,20.81-36.89,20.8-18,0-28.35-10.22T638,201q0-36,42.68-41.6l33.62-4.47q0-20.31-22-20.32T650.2,147.74V119q8-4.11,21.83-7.25a114.49,114.49,0,0,1,25.21-3.15q53,0,53,52.85Zm-35.92-50.31v-8.34l-22.49,2.9q-18.63,2.42-18.62,16.81a13.9,13.9,0,0,0,4.53,10.7q4.54,4.17,12.28,4.17,10.75,0,17.53-7.43T714.29,185.11Z" style="fill:#222"/><path d="M898.34,111.59,852.27,235.42H808.74l-43.9-123.83h40.87l21.53,76.3a111.09,111.09,0,0,1,4.23,22H832a125.36,125.36,0,0,1,4.48-21.28l22-77Z" style="fill:#222"/><path d="M971.26,238.44q-31,0-48.67-17.35T904.87,174q0-30.72,18.39-48.07T973,108.56q30.82,0,48.37,17.36t17.53,45.89q0,30.84-18.08,48.73T971.26,238.44Zm1-100.61q-13.54,0-21,9.31t-7.5,26.36q0,35.69,28.78,35.68,27.45,0,27.45-36.64Q999.92,137.83,972.23,137.83Z" style="fill:#222"/><path d="M421.77,283.8H399.66v19.59h20.45v6H399.66v25.08H393V277.8h28.75Z" style="fill:#4d4d4d"/><path d="M467.3,335.37q-12,0-19.29-7.93t-7.24-20.66q0-13.65,7.38-21.79t20.1-8.14q11.73,0,18.89,7.9t7.17,20.65q0,13.86-7.34,21.92T467.3,335.37Zm.48-52.51a18.28,18.28,0,0,0-14.5,6.43q-5.56,6.43-5.56,16.9T453.15,323a17.7,17.7,0,0,0,14.15,6.38q9.31,0,14.69-6.08t5.37-17q0-11.22-5.21-17.33T467.78,282.86Z" style="fill:#4d4d4d"/><path d="M553.82,334.43h-7.9l-7.46-17.06q-3.08-7-8.65-7h-5.76v24.09h-6.64V277.8h16.9q8.15,0,12.68,4.05t4.54,11A15.48,15.48,0,0,1,548.14,303a16.19,16.19,0,0,1-9.21,5.49v.16q3.21,1.19,5.81,6.71ZM524.05,283.8v20.54h8.76a12,12,0,0,0,8.53-3,10.28,10.28,0,0,0,3.24-7.88,8.86,8.86,0,0,0-3-7.09q-3-2.55-8.49-2.55Z" style="fill:#4d4d4d"/><path d="M616.65,313v21.41H610V277.8h15.56q9.07,0,14.07,4.42t5,12.48a17.16,17.16,0,0,1-5.55,13.19q-5.55,5.13-15,5.13Zm0-29.22V307h7q6.87,0,10.49-3.14T637.7,295q0-11.22-13.27-11.22Z" style="fill:#4d4d4d"/><path d="M690.1,335.37q-12,0-19.29-7.93t-7.24-20.66q0-13.65,7.38-21.79t20.1-8.14q11.73,0,18.89,7.9t7.17,20.65q0,13.86-7.34,21.92T690.1,335.37Zm.48-52.51a18.28,18.28,0,0,0-14.5,6.43q-5.57,6.43-5.56,16.9T676,323a17.69,17.69,0,0,0,14.15,6.38q9.31,0,14.69-6.08t5.37-17q0-11.22-5.21-17.33T690.58,282.86Z" style="fill:#4d4d4d"/><path d="M807.34,277.8l-16,56.63h-7.78L771.92,293a26.1,26.1,0,0,1-.91-5.76h-.15a29,29,0,0,1-1,5.68L758.1,334.43h-7.7L733.82,277.8h7.3l12,43.44a28.31,28.31,0,0,1,.94,5.68h.2a33.71,33.71,0,0,1,1.22-5.68l12.52-43.44h6.36l12,43.75a32.16,32.16,0,0,1,1,5.29h.16a30.87,30.87,0,0,1,1.07-5.44l11.57-43.6Z" style="fill:#4d4d4d"/><path d="M857.73,334.43h-30V277.8h28.75v6H834.35v18.84h20.46v6H834.35v19.82h23.38Z" style="fill:#4d4d4d"/><path d="M917,334.43h-7.89l-7.47-17.06q-3.07-7-8.64-7h-5.77v24.09H880.6V277.8h16.9q8.13,0,12.67,4.05t4.54,11A15.48,15.48,0,0,1,911.32,303a16.16,16.16,0,0,1-9.2,5.49v.16q3.2,1.19,5.8,6.71ZM887.23,283.8v20.54H896a12,12,0,0,0,8.53-3,10.31,10.31,0,0,0,3.23-7.88,8.83,8.83,0,0,0-3-7.09q-3-2.55-8.49-2.55Z" style="fill:#4d4d4d"/><path d="M973.2,334.43V277.8h16.11q7.35,0,11.65,3.6a11.59,11.59,0,0,1,4.3,9.35,13.71,13.71,0,0,1-2.6,8.37,14.09,14.09,0,0,1-7.19,5.06v.16a14.38,14.38,0,0,1,9.16,4.32,13.31,13.31,0,0,1,3.44,9.5,14.81,14.81,0,0,1-5.21,11.76,19.42,19.42,0,0,1-13.15,4.51Zm6.63-50.63v18.29h6.8q5.45,0,8.57-2.63a9.17,9.17,0,0,0,3.11-7.4q0-8.26-10.85-8.26Zm0,24.25v20.37h9q5.83,0,9.06-2.76a9.45,9.45,0,0,0,3.22-7.58q0-10-13.66-10Z" style="fill:#4d4d4d"/><path d="M1038.16,334.43h-6.63V277.8h6.63Z" style="fill:#4d4d4d"/><rect x="93.81" y="33.69" width="62.85" height="149.58" style="fill:#b71d1d"/><polygon points="300.67 137.07 97.27 137.07 97.27 0.63 1.14 0.63 1.14 137.07 1.14 150.2 1.14 270 1.14 278.86 1.14 334.43 208.41 334.43 208.41 278.86 300.67 278.86 300.67 137.07" style="fill:#f42727"/><polygon points="300.67 208.26 208.41 136.89 300.67 136.89 300.67 208.26" style="fill:#7a1414"/><rect x="97.27" y="33.69" width="27.96" height="103.2" style="fill:url(#a)"/><path d="M117.26,162.9A20.36,20.36,0,0,0,96.9,183.27h40.73A20.37,20.37,0,0,0,117.26,162.9Z" style="fill:#fff"/></svg>